# xmcd
# 
# Track frame offsets:
#     212
#     34925
#     59777
#     78057
#     106477
#     126835
#     152820
#     170835
#     193145
#     209142
#     227957
# 
# Disc length: 3373
# 
# Revision: 6
# Processed by: cddbd v1.5.2PL0 Copyright (c) Steve Scherf et al.
# Submitted via: BonkEnc v1.0
# 
DISCID=a60d2b0b
DTITLE=Bob Mould - Black Sheets Of Rain
DYEAR=1990
DGENRE=Alternative
TTITLE0=Black Sheets of Rain
TTITLE1=Stand Guard
TTITLE2=It’s Too Late
TTITLE3=One Good Reason
TTITLE4=Stop Your Crying
TTITLE5=Hanging Tree
TTITLE6=The Last Night
TTITLE7=Hear Me Calling
TTITLE8=Out of Your Life
TTITLE9=Disappointed
TTITLE10=Sacrifice ⁄ Let There Be Peace
EXTD=
EXTT0=
EXTT1=
EXTT2=
EXTT3=
EXTT4=
EXTT5=
EXTT6=
EXTT7=
EXTT8=
EXTT9=
EXTT10=
PLAYORDER=
